# xmcd
#
# Track frame offsets:
#	150
#	11850
#	24067
#	37262
#	49397
#	66765
#	77060
#	93385
#	111495
#	122115
# Disc length: 1808 seconds
# Revision: 1
# Processed by: cddbd v1.5.1PL0 Copyright (c) Steve Scherf et al.
#
# Submitted via: libkcddb 0.10
#
DISCID=86070e0a
DTITLE=John Lee Hooker - Round midnight
DYEAR=1900
DGENRE=
TTITLE0=Little wheel
TTITLE1=I'm in the mood
TTITLE2=Hoho blues
TTITLE3=Crawling king snake
TTITLE4=Blues before sunrise
TTITLE5=Want ad blues
TTITLE6=My first wife left me
TTITLE7=Wednesday evening blues
TTITLE8=Maudie
TTITLE9=Time is marching
EXTD=
EXTT0=
EXTT1=
EXTT2=
EXTT3=
EXTT4=
EXTT5=
EXTT6=
EXTT7=
EXTT8=
EXTT9=
PLAYORDER=
